<?xml version="1.0" encoding="UTF-8"?>
<!DOCTYPE svg PUBLIC "-//W3C//DTD SVG 1.1//EN" "http://www.w3.org/Graphics/SVG/1.1/DTD/svg11.dtd">
<!-- Creator: CorelDRAW X7 -->
<svg xmlns="http://www.w3.org/2000/svg" xml:space="preserve" width="108.373mm" height="60.96mm" version="1.1" style="shape-rendering:geometricPrecision; text-rendering:geometricPrecision; image-rendering:optimizeQuality; fill-rule:evenodd; clip-rule:evenodd"
viewBox="0 0 10837 6096"
 xmlns:xlink="http://www.w3.org/1999/xlink">
 <defs>
  <style type="text/css">
   <![CDATA[
    .fil7 {fill:none}
    .fil4 {fill:#282EAB}
    .fil6 {fill:#C7BFE6}
    .fil5 {fill:#FF7F26}
    .fil0 {fill:#AE4A84;fill-rule:nonzero}
    .fil2 {fill:#282EAB;fill-rule:nonzero}
    .fil3 {fill:#C7BFE6;fill-rule:nonzero}
    .fil1 {fill:#FF7F26;fill-rule:nonzero}
   ]]>
  </style>
 </defs>
 <g id="Layer_x0020_1">
  <metadata id="CorelCorpID_0Corel-Layer"/>
  <g id="_2791642205488">
   <path class="fil0" d="M4260 3054c17,-38 49,-57 96,-57l0 72c-26,-1 -48,5 -67,19 -19,13 -29,36 -29,68l0 155 -66 0 0 -308 66 0 0 51z"/>
   <path class="fil0" d="M4422 3185c5,24 16,42 34,54 17,13 39,19 64,19 36,0 62,-13 80,-38l55 32c-31,45 -76,67 -135,67 -50,0 -91,-15 -122,-46 -31,-30 -46,-69 -46,-116 0,-46 15,-85 46,-116 30,-31 69,-46 117,-46 45,0 82,15 111,47 29,32 44,70 44,116 0,7 -1,16 -3,27l-245 0zm-1 -54l181 0c-4,-25 -15,-44 -31,-57 -16,-13 -35,-19 -57,-19 -25,0 -45,7 -62,20 -16,14 -27,33 -31,56z"/>
   <path class="fil0" d="M4974 2879l67 0 0 432 -67 0 0 -44c-25,35 -61,52 -108,52 -42,0 -79,-15 -109,-47 -30,-31 -45,-70 -45,-115 0,-46 15,-84 45,-115 30,-32 67,-47 109,-47 47,0 83,17 108,51l0 -167zm-167 349c18,18 41,28 69,28 28,0 52,-10 70,-28 19,-19 28,-43 28,-71 0,-28 -9,-52 -28,-71 -18,-18 -42,-28 -70,-28 -28,0 -51,10 -69,28 -19,19 -28,43 -28,71 0,28 9,52 28,71z"/>
   <polygon class="fil0" points="5122,3311 5122,3003 5189,3003 5189,3311 "/>
   <path class="fil1" d="M5185 2944c-8,8 -18,12 -30,12 -11,0 -21,-4 -30,-12 -8,-9 -12,-19 -12,-30 0,-12 4,-22 12,-30 8,-9 18,-13 30,-13 12,0 22,4 31,13 8,8 12,18 12,30 0,11 -4,21 -13,30z"/>
   <path class="fil0" d="M5395 3319c-47,0 -85,-15 -116,-47 -32,-31 -47,-69 -47,-115 0,-46 15,-85 47,-116 31,-31 69,-46 116,-46 30,0 57,7 82,21 25,15 43,34 55,58l-57 34c-7,-15 -18,-27 -32,-35 -14,-9 -30,-13 -49,-13 -27,0 -50,9 -68,28 -18,18 -27,41 -27,69 0,28 9,51 27,69 18,19 41,28 68,28 18,0 35,-4 49,-13 15,-9 26,-20 33,-35l58 33c-13,25 -32,44 -57,59 -25,14 -52,21 -82,21z"/>
   <path class="fil0" d="M5762 3067l-76 0 0 148c0,13 2,22 8,27 6,6 14,9 26,10 11,0 25,0 42,-1l0 60c-51,6 -88,2 -110,-13 -22,-15 -33,-43 -33,-83l0 -148 -57 0 0 -64 57 0 0 -67 67 -20 0 87 76 0 0 64z"/>
   <path class="fil2" d="M6060 3311l-88 -150 -64 0 0 150 -85 0 0 -432 172 0c40,0 74,14 102,42 28,28 42,62 42,101 0,27 -7,52 -23,75 -15,23 -35,40 -60,51l95 163 -91 0zm-152 -352l0 128 87 0c16,0 30,-7 42,-19 11,-13 17,-28 17,-46 0,-17 -6,-32 -17,-45 -12,-12 -26,-18 -42,-18l-87 0z"/>
   <path class="fil2" d="M6470 3311l-27 -78 -178 0 -26 78 -92 0 151 -432 106 0 152 432 -86 0zm-177 -157l121 0 -62 -177 -59 177z"/>
   <polygon class="fil2" points="6995,2879 6995,3311 6911,3311 6911,3031 6789,3231 6779,3232 6658,3032 6658,3311 6572,3311 6572,2879 6660,2879 6784,3083 6907,2879 "/>
   <g>
    <polygon class="fil3" points="4049,3081 4049,3274 3941,3336 3934,3325 4036,3267 4036,3081 "/>
    <polygon class="fil4" points="3847,2860 3941,2910 3941,3336 3842,3295 "/>
    <path class="fil5" d="M4036 2931l0 96c107,-19 118,-178 0,-96z"/>
    <path class="fil6" d="M3847 2860c0,0 135,-100 193,-100 31,0 64,9 86,21 21,12 31,22 34,46l-13 1c0,0 -3,-29 -42,-12 -38,17 -164,94 -164,94l-94 -50z"/>
   </g>
  </g>
  <rect class="fil7" x="3131" y="2248" width="4575" height="1599"/>
 </g>
</svg>
