<svg width="16" height="26" viewBox="0 0 16 26" fill="none" xmlns="http://www.w3.org/2000/svg">
<path d="M7.79011 0.622009L7.62402 1.18615L7.62402 17.5546L7.79011 17.7203L15.388 13.2291L7.79011 0.622009Z" fill="#343434"/>
<path d="M7.80025 0.622009L0.202148 13.2291L7.80025 17.7203L7.80025 9.77551L7.80025 0.622009Z" fill="#8C8C8C"/>
<path d="M7.78989 19.1597L7.69629 19.2739L7.69629 25.1046L7.78989 25.3778L15.3925 14.6709L7.78989 19.1597Z" fill="#3C3C3B"/>
<path d="M7.80025 25.378L7.80025 19.1599L0.202148 14.671L7.80025 25.378Z" fill="#8C8C8C"/>
<path d="M7.79297 17.7201L15.3909 13.2289L7.79297 9.7753L7.79297 17.7201Z" fill="#141414"/>
<path d="M0.202148 13.229L7.80025 17.7202L7.80025 9.77542L0.202148 13.229Z" fill="#393939"/>
</svg>
