<svg width="138" height="50" viewBox="0 0 138 50" fill="none" xmlns="http://www.w3.org/2000/svg">
    <path d="M132.451 6.444a4.666 4.666 0 0 0-4.402-3.11h-.042a4.662 4.662 0 0 0-3.365 1.428 4.663 4.663 0 0 0-3.367-1.429h-.043a4.653 4.653 0 0 0-3.04 1.125v-.354a.69.69 0 0 0-.686-.635h-3.128a.688.688 0 0 0-.69.687v16.862a.69.69 0 0 0 .69.689h3.128a.689.689 0 0 0 .681-.596V9.01a1.246 1.246 0 0 1 0-.122 1.135 1.135 0 0 1 1.077-1.04h.574c.244.015.478.103.671.253.274.222.43.557.422.909l.013 12.044c0 .38.309.687.691.687h3.128a.685.685 0 0 0 .685-.653V8.993c-.008-.389.184-.755.51-.97.172-.11.368-.175.572-.192h.576a1.138 1.138 0 0 1 1.082 1.162l.013 12.03a.687.687 0 0 0 .69.686h3.128a.692.692 0 0 0 .691-.687V8.084a4.342 4.342 0 0 0-.259-1.64zM111.317 3.513h-1.788V.636a.626.626 0 0 0-.746-.623c-1.98.54-1.582 3.267-5.197 3.5h-.351a.695.695 0 0 0-.69.685v3.11a.685.685 0 0 0 .69.69h1.884v13.158c0 .374.304.678.681.68h3.088a.682.682 0 0 0 .67-.68V8h1.747a.69.69 0 0 0 .691-.689V4.2a.689.689 0 0 0-.679-.687z" fill="#00BDF2"/>
    <path d="M100.086 3.513h-3.128a.69.69 0 0 0-.688.687v6.42a.729.729 0 0 1-.724.713h-1.309a.729.729 0 0 1-.73-.726l-.014-6.41a.688.688 0 0 0-.69-.686h-3.128a.692.692 0 0 0-.69.687v7.038c0 2.666 1.916 4.577 4.604 4.577h2.08a.726.726 0 0 1 .639.72.726.726 0 0 1-.639.718h-.053l-4.565.016a.688.688 0 0 0-.69.686v3.111c0 .38.309.687.69.687h5.103c2.681 0 4.605-1.904 4.605-4.578V4.2a.688.688 0 0 0-.673-.687z" fill="#203468"/>
    <path fill-rule="evenodd" clip-rule="evenodd" d="M63.321 3.513h6.823c2.496 0 4.243 1.73 4.252 4.225v4.378c0 2.5-1.745 4.222-4.245 4.222h-2.985l-.013 4.72c0 .379-.31.686-.69.686h-3.18a.668.668 0 0 1-.632-.689V4.18a.665.665 0 0 1 .67-.667zm6.55 7.598V8.73A.73.73 0 0 0 69.14 8h-1.98v3.838h1.98a.725.725 0 0 0 .733-.727zM78.002 3.531h4.324c3.539 0 5.02 1.802 5.02 4.662v11.778a1.783 1.783 0 0 1-1.839 1.707h-5.661c-2.7 0-4.362-1.783-4.362-4.287v-3.604c0-2.52 1.935-4.316 4.652-4.316h2.042a.688.688 0 0 0 .603-.638v-.4a.715.715 0 0 0-.62-.655h-4.125a.713.713 0 0 1-.728-.694V4.176a.665.665 0 0 1 .694-.645zm4.822 13.444v-2.662a.713.713 0 0 0-.737-.684h-1.299a.711.711 0 0 0-.735.68v2.667a.705.705 0 0 0 .735.682h1.299a.729.729 0 0 0 .723-.567.66.66 0 0 0 .014-.116z" fill="#203468"/>
    <path d="M71.087 43.984 65.19 28.667h-.094c.11 1.213.165 2.655.165 4.326v10.994h-1.865V26.702h3.042l5.503 14.258h.094l5.552-14.258h3.019v17.282h-2.011V32.85c0-1.276.055-2.662.165-4.16h-.094l-5.943 15.295h-1.637z" fill="#213368"/>
    <path fill-rule="evenodd" clip-rule="evenodd" d="M93.986 42.442c1.07-1.186 1.604-2.835 1.604-4.946 0-2.066-.537-3.701-1.61-4.907-1.075-1.206-2.523-1.809-4.344-1.809-1.886.007-3.36.6-4.422 1.778-1.062 1.178-1.593 2.823-1.593 4.935a8.11 8.11 0 0 0 .738 3.57 5.398 5.398 0 0 0 2.09 2.341 5.908 5.908 0 0 0 3.102.816c1.887.002 3.365-.591 4.435-1.778zm-7.322-1.169c-.665-.862-.998-2.121-.998-3.777-.002-1.675.327-2.933.985-3.776.658-.843 1.633-1.264 2.925-1.264 1.306-.002 2.294.425 2.964 1.282.67.856 1.006 2.107 1.006 3.753-.002 1.664-.337 2.927-1.006 3.789-.669.862-1.649 1.293-2.94 1.293-1.291-.004-2.27-.437-2.936-1.3z" fill="#213368"/>
    <path d="M107.233 43.984v-8.38c0-1.054-.242-1.843-.726-2.364-.484-.522-1.241-.782-2.27-.78-1.363 0-2.361.366-2.994 1.098-.633.732-.95 1.942-.952 3.63v6.796h-1.973V31.03h1.605l.321 1.778h.101a4.036 4.036 0 0 1 1.7-1.485 5.574 5.574 0 0 1 2.438-.524c1.568 0 2.748.376 3.541 1.129.792.752 1.188 1.956 1.188 3.61v8.445l-1.979.002z" fill="#213368"/>
    <path fill-rule="evenodd" clip-rule="evenodd" d="M113.474 42.473c1.112 1.166 2.632 1.75 4.557 1.75.756.01 1.511-.057 2.253-.2.68-.149 1.343-.364 1.979-.645v-1.75c-1.312.571-2.728.868-4.16.874-1.332 0-2.364-.394-3.097-1.182-.732-.788-1.118-1.942-1.157-3.462h8.973v-1.242c-.005-1.749-.48-3.156-1.426-4.223-.946-1.066-2.238-1.6-3.876-1.6-1.743-.001-3.131.613-4.165 1.843-1.033 1.23-1.55 2.888-1.55 4.977 0 2.074.556 3.694 1.669 4.86zm1.521-9.01c.626-.68 1.46-1.019 2.503-1.019 1.03-.001 1.823.328 2.377.987.554.66.831 1.608.831 2.845h-6.81c.107-1.198.474-2.135 1.099-2.814z" fill="#213368"/>
    <path d="M123.387 31.029h2.116l2.853 7.389c.471 1.19.86 2.41 1.164 3.653h.094c.105-.403.321-1.091.647-2.064.327-.974 1.403-3.966 3.229-8.978h2.116l-5.599 14.749c-.554 1.458-1.202 2.495-1.944 3.11a4.14 4.14 0 0 1-2.728.919 7.899 7.899 0 0 1-1.787-.203v-1.57c.481.098.972.146 1.463.142 1.354 0 2.322-.757 2.905-2.272l.723-1.844-5.252-13.031z" fill="#213368"/>
    <path d="M2.431 29.456 27.611.788a.932.932 0 0 1 1.441 0l25.339 28.846c.643.732.185 1.983-.722 1.978l-50.514-.18c-.913-.004-1.365-1.249-.724-1.977z" fill="#00BDF2"/>
    <path d="m2.32 40.476 25.338-28.852a.87.87 0 0 1 1.34 0l25.507 29.043c.6.682.174 1.85-.67 1.849l-50.847-.19c-.845-.004-1.267-1.168-.668-1.85z" fill="#223369"/>
    <path d="M24.605 24.707a.767.767 0 0 1-.606-.223.766.766 0 0 1-.194-.513.722.722 0 0 1 .194-.5.78.78 0 0 1 .606-.222H32.2a.728.728 0 0 1 .802.738.718.718 0 0 1-.194.5.778.778 0 0 1-.608.222h-1.117c-.478 0-.894 0-1.21-.02-.318-.02-.528-.029-.597-.042v.082c.32.145.606.354.842.613.287.309.499.68.619 1.082h1.456a.729.729 0 0 1 .569.188.72.72 0 0 1 .234.548.73.73 0 0 1-.195.502.784.784 0 0 1-.608.222h-1.333a3.763 3.763 0 0 1-.514 1.607 3.826 3.826 0 0 1-.997 1.093c-.392.288-.83.51-1.293.656-.452.145-.918.24-1.39.284l4.645 4.445c.207.19.327.457.33.738a.932.932 0 0 1-.245.653.896.896 0 0 1-.67.267 1.44 1.44 0 0 1-.447-.072 1.169 1.169 0 0 1-.447-.297l-5.47-5.336a1.406 1.406 0 0 1-.328-.418 1.002 1.002 0 0 1-.103-.444.886.886 0 0 1 .246-.642.847.847 0 0 1 .637-.256h.268c.424 0 .847-.038 1.265-.113a3.69 3.69 0 0 0 1.13-.387 2.9 2.9 0 0 0 .853-.706c.244-.316.399-.69.447-1.085h-4.173a.727.727 0 0 1-.568-.187.718.718 0 0 1-.232-.549.718.718 0 0 1 .194-.5.787.787 0 0 1 .606-.222h4.07c-.357-1.144-1.402-1.715-3.145-1.715l-.925.009z" fill="#fff"/>
</svg>
