<?xml version="1.0" encoding="UTF-8"?>
<!DOCTYPE svg PUBLIC "-//W3C//DTD SVG 1.1//EN" "http://www.w3.org/Graphics/SVG/1.1/DTD/svg11.dtd">
<!-- Creator: CorelDRAW X7 -->
<svg xmlns="http://www.w3.org/2000/svg" xml:space="preserve" width="108.373mm" height="60.96mm" version="1.1" style="shape-rendering:geometricPrecision; text-rendering:geometricPrecision; image-rendering:optimizeQuality; fill-rule:evenodd; clip-rule:evenodd"
viewBox="0 0 10837 6096"
 xmlns:xlink="http://www.w3.org/1999/xlink">
 <defs>
  <style type="text/css">
   <![CDATA[
    .fil10 {fill:none}
    .fil9 {fill:#AE4A84}
    .fil4 {fill:#282EAB}
    .fil8 {fill:#A9A4DB}
    .fil6 {fill:#C7BFE6}
    .fil5 {fill:#FF7F26}
    .fil0 {fill:#AE4A84;fill-rule:nonzero}
    .fil2 {fill:#282EAB;fill-rule:nonzero}
    .fil7 {fill:#A9A4DB;fill-rule:nonzero}
    .fil3 {fill:#C7BFE6;fill-rule:nonzero}
    .fil1 {fill:#FF7F26;fill-rule:nonzero}
   ]]>
  </style>
 </defs>
 <g id="Layer_x0020_1">
  <metadata id="CorelCorpID_0Corel-Layer"/>
  <g id="_2755574319904">
   <path class="fil0" d="M4439 3951c14,-33 41,-49 80,-49l0 61c-21,-1 -40,4 -56,16 -16,11 -24,31 -24,57l0 132 -56 0 0 -261 56 0 0 44z"/>
   <path class="fil0" d="M4575 4061c4,20 14,36 29,46 15,11 33,16 55,16 30,0 52,-11 67,-32l47 27c-26,38 -64,57 -115,57 -42,0 -76,-13 -103,-39 -26,-26 -39,-59 -39,-99 0,-39 13,-71 39,-97 26,-27 59,-40 99,-40 38,0 70,14 94,40 25,27 37,60 37,98 0,6 -1,14 -2,23l-208 0zm0 -45l153 0c-4,-22 -12,-38 -26,-49 -14,-10 -30,-16 -48,-16 -21,0 -39,6 -53,18 -14,11 -22,27 -26,47z"/>
   <path class="fil0" d="M5042 3803l57 0 0 365 -57 0 0 -38c-21,30 -51,45 -91,45 -36,0 -66,-14 -92,-40 -25,-27 -38,-59 -38,-98 0,-38 13,-71 38,-97 26,-27 56,-40 92,-40 40,0 70,15 91,44l0 -141zm-141 294c16,16 35,24 59,24 24,0 43,-8 59,-24 16,-16 23,-36 23,-60 0,-24 -7,-43 -23,-59 -16,-16 -35,-24 -59,-24 -24,0 -43,8 -59,24 -16,16 -23,35 -23,59 0,24 7,44 23,60z"/>
   <polygon class="fil0" points="5168,4168 5168,3907 5224,3907 5224,4168 "/>
   <path class="fil1" d="M5221 3857c-7,7 -15,11 -25,11 -10,0 -18,-4 -25,-11 -7,-7 -11,-15 -11,-25 0,-10 3,-18 10,-26 7,-7 16,-10 26,-10 10,0 19,3 26,10 7,8 10,16 10,26 0,10 -4,18 -11,25z"/>
   <path class="fil0" d="M5399 4175c-40,0 -73,-13 -99,-40 -26,-26 -39,-59 -39,-98 0,-39 13,-71 39,-97 26,-27 59,-40 99,-40 25,0 48,6 69,18 21,13 37,29 47,49l-49 29c-6,-13 -14,-23 -26,-30 -12,-7 -26,-11 -42,-11 -23,0 -42,8 -58,24 -15,16 -23,35 -23,58 0,24 8,43 23,59 16,16 35,23 58,23 15,0 29,-3 42,-11 12,-7 21,-17 27,-29l49 28c-11,21 -27,37 -48,49 -21,13 -44,19 -69,19z"/>
   <path class="fil0" d="M5709 3961l-65 0 0 126c0,10 3,18 8,23 5,4 12,7 21,8 10,0 22,0 36,-1l0 51c-43,5 -74,1 -93,-11 -19,-13 -28,-36 -28,-70l0 -126 -48 0 0 -54 48 0 0 -56 56 -17 0 73 65 0 0 54z"/>
   <path class="fil2" d="M5961 4168l-74 -127 -55 0 0 127 -72 0 0 -365 146 0c34,0 63,11 87,35 23,24 35,52 35,86 0,22 -6,43 -19,63 -13,19 -30,33 -51,43l81 138 -78 0zm-129 -298l0 108 74 0c14,0 26,-5 35,-16 10,-11 15,-23 15,-38 0,-15 -5,-28 -15,-38 -9,-11 -21,-16 -35,-16l-74 0z"/>
   <path class="fil2" d="M6308 4168l-23 -66 -150 0 -22 66 -78 0 128 -365 89 0 129 365 -73 0zm-150 -133l103 0 -53 -149 -50 149z"/>
   <polygon class="fil2" points="6752,3803 6752,4168 6681,4168 6681,3931 6578,4100 6569,4101 6467,3932 6467,4168 6395,4168 6395,3803 6469,3803 6573,3975 6678,3803 "/>
   <g>
    <polygon class="fil3" points="4260,3973 4260,4136 4169,4189 4163,4180 4249,4131 4249,3973 "/>
    <polygon class="fil4" points="4089,3786 4169,3829 4169,4189 4085,4154 "/>
    <path class="fil5" d="M4249 3846l0 81c90,-15 100,-150 0,-81z"/>
    <path class="fil6" d="M4089 3786c0,0 115,-84 164,-84 26,0 54,7 73,18 17,9 26,18 28,38l-11 1c0,0 -3,-25 -35,-10 -33,14 -139,80 -139,80l-80 -43z"/>
   </g>
   <polygon class="fil7" points="5793,2833 5793,3346 5505,3510 5487,3482 5760,3327 5760,2833 "/>
   <polygon class="fil4" points="5256,2243 5505,2378 5505,3510 5243,3402 "/>
   <polygon class="fil4" points="4973,2398 5216,2513 5216,3510 4966,3402 "/>
   <polygon class="fil4" points="4697,2620 4939,2715 4939,3510 4690,3395 "/>
   <polygon class="fil4" points="4683,1919 4703,1919 4703,3531 4683,3531 "/>
   <polygon class="fil4" points="6155,3510 4684,3510 4684,3530 6155,3530 "/>
   <path class="fil5" d="M5760 2432l0 256c283,-50 312,-475 0,-256z"/>
   <path class="fil8" d="M5256 2243c0,0 359,-265 514,-265 82,0 170,23 230,56 54,30 82,57 88,121l-34 4c0,0 -9,-79 -110,-34 -102,46 -439,253 -439,253l-249 -135z"/>
   <polygon class="fil9" points="6155,3530 6135,3530 6135,1907 6155,1907 "/>
   <polygon class="fil9" points="4683,1929 6155,1929 6155,1908 4683,1908 "/>
  </g>
  <rect class="fil10" x="3561" y="1190" width="3716" height="3716"/>
 </g>
</svg>
