<?xml version="1.0" encoding="UTF-8"?>
<!DOCTYPE svg PUBLIC "-//W3C//DTD SVG 1.1//EN" "http://www.w3.org/Graphics/SVG/1.1/DTD/svg11.dtd">
<!-- Creator: CorelDRAW X7 -->
<svg xmlns="http://www.w3.org/2000/svg" xml:space="preserve" width="108.373mm" height="60.96mm" version="1.1" style="shape-rendering:geometricPrecision; text-rendering:geometricPrecision; image-rendering:optimizeQuality; fill-rule:evenodd; clip-rule:evenodd"
viewBox="0 0 10837 6096"
 xmlns:xlink="http://www.w3.org/1999/xlink">
 <defs>
  <style type="text/css">
   <![CDATA[
    .fil5 {fill:none}
    .fil4 {fill:#AE4A84}
    .fil1 {fill:#282EAB}
    .fil3 {fill:#A9A4DB}
    .fil2 {fill:#FF7F26}
    .fil0 {fill:#A9A4DB;fill-rule:nonzero}
   ]]>
  </style>
 </defs>
 <g id="Layer_x0020_1">
  <metadata id="CorelCorpID_0Corel-Layer"/>
  <g id="_2755572834272">
   <polygon class="fil0" points="5793,3161 5793,3674 5505,3838 5487,3810 5759,3655 5759,3161 "/>
   <polygon class="fil1" points="5255,2571 5505,2706 5505,3838 5242,3730 "/>
   <polygon class="fil1" points="4972,2726 5215,2841 5215,3838 4966,3730 "/>
   <polygon class="fil1" points="4696,2949 4939,3043 4939,3838 4689,3723 "/>
   <polygon class="fil1" points="4683,2247 4703,2247 4703,3859 4683,3859 "/>
   <polygon class="fil1" points="6155,3838 4683,3838 4683,3858 6155,3858 "/>
   <path class="fil2" d="M5759 2760l0 256c283,-50 312,-475 0,-256z"/>
   <path class="fil3" d="M5255 2571c0,0 360,-265 514,-265 83,0 171,23 230,56 55,30 83,58 88,121l-34 4c0,0 -8,-79 -110,-33 -102,45 -438,252 -438,252l-250 -135z"/>
   <polygon class="fil4" points="6155,3858 6135,3858 6135,2237 6155,2237 "/>
   <polygon class="fil4" points="4683,2257 6154,2257 6154,2237 4683,2237 "/>
  </g>
  <rect class="fil5" x="4008" y="1637" width="2822" height="2822"/>
 </g>
</svg>
